<svg width="197" height="30" viewBox="0 0 197 30" fill="none" xmlns="http://www.w3.org/2000/svg">
<path d="M18.6364 11.2812C18.4574 10.6591 18.206 10.1094 17.8821 9.6321C17.5582 9.14631 17.1619 8.73722 16.6932 8.40483C16.233 8.06392 15.7045 7.80398 15.108 7.625C14.5199 7.44602 13.8679 7.35653 13.152 7.35653C11.8139 7.35653 10.6378 7.68892 9.62358 8.35369C8.6179 9.01846 7.83381 9.98579 7.27131 11.2557C6.70881 12.517 6.42756 14.0597 6.42756 15.8835C6.42756 17.7074 6.70455 19.2585 7.25852 20.5369C7.8125 21.8153 8.59659 22.7912 9.6108 23.4645C10.625 24.1293 11.8224 24.4616 13.2031 24.4616C14.456 24.4616 15.5256 24.2401 16.4119 23.7969C17.3068 23.3452 17.9886 22.7102 18.4574 21.892C18.9347 21.0739 19.1733 20.1065 19.1733 18.9901L20.2983 19.1562H13.5483V14.9886H24.5043V18.2869C24.5043 20.5881 24.0185 22.5653 23.0469 24.2188C22.0753 25.8636 20.7372 27.1335 19.0327 28.0284C17.3281 28.9148 15.3764 29.358 13.1776 29.358C10.723 29.358 8.56676 28.8168 6.70881 27.7344C4.85085 26.6435 3.40199 25.0966 2.36222 23.0938C1.33097 21.0824 0.815341 18.696 0.815341 15.9347C0.815341 13.8125 1.12216 11.9205 1.7358 10.2585C2.35795 8.58807 3.22727 7.1733 4.34375 6.0142C5.46023 4.85511 6.75994 3.97301 8.2429 3.3679C9.72585 2.76278 11.3324 2.46023 13.0625 2.46023C14.5455 2.46023 15.9261 2.67756 17.2045 3.11222C18.483 3.53835 19.6165 4.14347 20.6051 4.92756C21.6023 5.71165 22.4162 6.64489 23.0469 7.72727C23.6776 8.80114 24.0824 9.98579 24.2614 11.2812H18.6364ZM28.6623 29V2.81818H38.9918C40.9776 2.81818 42.6694 3.19744 44.0671 3.95597C45.4648 4.70597 46.5302 5.75 47.2631 7.08807C48.0046 8.41761 48.3754 9.9517 48.3754 11.6903C48.3754 13.429 48.0004 14.9631 47.2504 16.2926C46.5004 17.6222 45.4137 18.6577 43.9904 19.3991C42.5756 20.1406 40.8626 20.5114 38.8512 20.5114H32.2674V16.0753H37.9563C39.0217 16.0753 39.8995 15.892 40.5898 15.5256C41.2887 15.1506 41.8086 14.6349 42.1495 13.9787C42.4989 13.3139 42.6737 12.5511 42.6737 11.6903C42.6737 10.821 42.4989 10.0625 42.1495 9.41477C41.8086 8.75852 41.2887 8.25142 40.5898 7.89347C39.891 7.52699 39.0046 7.34375 37.9308 7.34375H34.1978V29H28.6623ZM53.4602 29H47.5284L56.5668 2.81818H63.7003L72.7259 29H66.794L60.2358 8.80114H60.0312L53.4602 29ZM53.0895 18.7088H67.1009V23.0298H53.0895V18.7088ZM98.4123 10.348C98.31 9.31676 97.8711 8.51562 97.0955 7.9446C96.32 7.37358 95.2674 7.08807 93.9379 7.08807C93.0344 7.08807 92.2717 7.21591 91.6495 7.47159C91.0273 7.71875 90.5501 8.06392 90.2177 8.5071C89.8938 8.95028 89.7319 9.45312 89.7319 10.0156C89.7148 10.4844 89.8129 10.8935 90.0259 11.2429C90.2475 11.5923 90.5501 11.8949 90.9336 12.1506C91.3171 12.3977 91.7603 12.6151 92.2631 12.8026C92.766 12.9815 93.3029 13.1349 93.8739 13.2628L96.2262 13.8253C97.3683 14.081 98.4165 14.4219 99.3711 14.848C100.326 15.2741 101.152 15.7983 101.851 16.4205C102.55 17.0426 103.091 17.7756 103.475 18.6193C103.867 19.4631 104.067 20.4304 104.076 21.5213C104.067 23.1236 103.658 24.5128 102.848 25.6889C102.047 26.8565 100.888 27.7642 99.3711 28.4119C97.8626 29.0511 96.043 29.3707 93.9123 29.3707C91.7987 29.3707 89.9577 29.0469 88.3896 28.3991C86.8299 27.7514 85.6112 26.7926 84.7333 25.5227C83.864 24.2443 83.408 22.6634 83.3654 20.7798H88.7219C88.7816 21.6577 89.033 22.3906 89.4762 22.9787C89.9279 23.5582 90.5288 23.9972 91.2788 24.2955C92.0373 24.5852 92.8938 24.7301 93.8484 24.7301C94.7859 24.7301 95.5998 24.5937 96.2901 24.321C96.989 24.0483 97.5302 23.669 97.9137 23.1832C98.2972 22.6974 98.489 22.1392 98.489 21.5085C98.489 20.9205 98.3143 20.4261 97.9648 20.0256C97.6239 19.625 97.1211 19.2841 96.4563 19.0028C95.8001 18.7216 94.9947 18.4659 94.0401 18.2358L91.1893 17.5199C88.9819 16.983 87.239 16.1435 85.9606 15.0014C84.6822 13.8594 84.0472 12.321 84.0558 10.3864C84.0472 8.80114 84.4691 7.41619 85.3214 6.23153C86.1822 5.04687 87.3626 4.12216 88.8626 3.45739C90.3626 2.79261 92.0671 2.46023 93.9762 2.46023C95.9194 2.46023 97.6154 2.79261 99.0643 3.45739C100.522 4.12216 101.655 5.04687 102.465 6.23153C103.275 7.41619 103.692 8.78835 103.718 10.348H98.4123ZM113.296 29.3707C112.043 29.3707 110.927 29.1534 109.947 28.7188C108.967 28.2756 108.191 27.6236 107.62 26.7628C107.058 25.8935 106.776 24.8111 106.776 23.5156C106.776 22.4247 106.977 21.5085 107.377 20.767C107.778 20.0256 108.323 19.429 109.013 18.9773C109.704 18.5256 110.488 18.1847 111.366 17.9545C112.252 17.7244 113.181 17.5625 114.153 17.4688C115.295 17.3494 116.215 17.2386 116.914 17.1364C117.613 17.0256 118.12 16.8636 118.435 16.6506C118.751 16.4375 118.908 16.1222 118.908 15.7045V15.6278C118.908 14.8182 118.653 14.1918 118.141 13.7486C117.638 13.3054 116.923 13.0838 115.994 13.0838C115.013 13.0838 114.234 13.3011 113.654 13.7358C113.075 14.1619 112.691 14.6989 112.504 15.3466L107.467 14.9375C107.722 13.7443 108.225 12.7131 108.975 11.8438C109.725 10.9659 110.692 10.2926 111.877 9.82386C113.07 9.34659 114.451 9.10795 116.019 9.10795C117.11 9.10795 118.154 9.2358 119.151 9.49148C120.157 9.74716 121.048 10.1435 121.823 10.6804C122.607 11.2173 123.225 11.9077 123.677 12.7514C124.129 13.5866 124.354 14.5881 124.354 15.7557V29H119.19V26.277H119.036C118.721 26.8906 118.299 27.4318 117.771 27.9006C117.242 28.3608 116.607 28.723 115.866 28.9872C115.124 29.2429 114.268 29.3707 113.296 29.3707ZM114.856 25.6122C115.657 25.6122 116.364 25.4545 116.978 25.1392C117.592 24.8153 118.073 24.3807 118.423 23.8352C118.772 23.2898 118.947 22.6719 118.947 21.9815V19.8977C118.776 20.0085 118.542 20.1108 118.244 20.2045C117.954 20.2898 117.626 20.3707 117.259 20.4474C116.893 20.5156 116.526 20.5795 116.16 20.6392C115.793 20.6903 115.461 20.7372 115.163 20.7798C114.523 20.8736 113.965 21.0227 113.488 21.2273C113.011 21.4318 112.64 21.7088 112.376 22.0582C112.112 22.3991 111.979 22.8253 111.979 23.3366C111.979 24.0781 112.248 24.6449 112.785 25.0369C113.33 25.4205 114.021 25.6122 114.856 25.6122ZM146.183 9.36364L139.318 29H133.182L126.317 9.36364H132.07L136.148 23.4134H136.352L140.418 9.36364H146.183ZM157.286 29.3835C155.266 29.3835 153.528 28.9744 152.07 28.1562C150.621 27.3295 149.505 26.1619 148.721 24.6534C147.937 23.1364 147.545 21.3423 147.545 19.2713C147.545 17.2514 147.937 15.4787 148.721 13.9531C149.505 12.4276 150.609 11.2386 152.032 10.3864C153.464 9.53409 155.143 9.10795 157.069 9.10795C158.364 9.10795 159.57 9.31676 160.687 9.73438C161.812 10.1435 162.792 10.7614 163.627 11.5881C164.471 12.4148 165.127 13.4545 165.596 14.7074C166.065 15.9517 166.299 17.4091 166.299 19.0795V20.5753H149.718V17.2003H161.173C161.173 16.4162 161.002 15.7216 160.661 15.1165C160.32 14.5114 159.847 14.0384 159.242 13.6974C158.646 13.348 157.951 13.1733 157.158 13.1733C156.332 13.1733 155.599 13.3651 154.96 13.7486C154.329 14.1236 153.835 14.6307 153.477 15.2699C153.119 15.9006 152.935 16.6037 152.927 17.3793V20.5881C152.927 21.5597 153.106 22.3991 153.464 23.1065C153.83 23.8139 154.346 24.3594 155.011 24.7429C155.675 25.1264 156.464 25.3182 157.376 25.3182C157.981 25.3182 158.535 25.233 159.038 25.0625C159.54 24.892 159.971 24.6364 160.329 24.2955C160.687 23.9545 160.96 23.5369 161.147 23.0426L166.184 23.375C165.928 24.5852 165.404 25.642 164.612 26.5455C163.827 27.4403 162.813 28.1392 161.569 28.642C160.333 29.1364 158.906 29.3835 157.286 29.3835ZM169.853 29V9.36364H175.133V12.7898H175.337C175.695 11.571 176.296 10.6506 177.14 10.0284C177.984 9.39773 178.955 9.08239 180.055 9.08239C180.327 9.08239 180.621 9.09943 180.937 9.13352C181.252 9.16761 181.529 9.21449 181.768 9.27415V14.1065C181.512 14.0298 181.158 13.9616 180.707 13.902C180.255 13.8423 179.842 13.8125 179.467 13.8125C178.665 13.8125 177.95 13.9872 177.319 14.3366C176.697 14.6776 176.202 15.1548 175.836 15.7685C175.478 16.3821 175.299 17.0895 175.299 17.8906V29H169.853ZM183.983 15.9091V13.0838L190.208 8.1108C190.686 7.71875 191.099 7.36506 191.449 7.04972C191.798 6.73437 192.071 6.41477 192.267 6.09091C192.463 5.76704 192.561 5.40909 192.561 5.01705C192.561 4.40341 192.309 3.9304 191.806 3.59801C191.304 3.26562 190.694 3.09943 189.978 3.09943C189.211 3.09943 188.593 3.28693 188.125 3.66193C187.664 4.02841 187.434 4.56108 187.434 5.25994H183.663C183.663 3.62358 184.26 2.34091 185.453 1.41193C186.646 0.474431 188.172 0.00568104 190.029 0.00568104C191.299 0.00568104 192.403 0.227272 193.341 0.670455C194.278 1.10511 195.002 1.69744 195.514 2.44744C196.034 3.19744 196.294 4.03693 196.294 4.96591C196.294 5.71591 196.136 6.41477 195.821 7.0625C195.514 7.7017 195.037 8.33239 194.389 8.95455C193.75 9.56818 192.923 10.2116 191.909 10.8849L189.633 12.5724V12.7131H196.473V15.9091H183.983Z" fill="white"/>
</svg>
